<?xml version="1.0" encoding="UTF-8"?>
<svg id="Capa_2" data-name="Capa 2" xmlns="http://www.w3.org/2000/svg" viewBox="0 0 357.97 371.38">
  <g id="Capa_1-2" data-name="Capa 1">
    <g>
      <path d="M138.45,182.64l-41.84,8.31.74,1.12,82.04,17.52,83.4-17.16c.18-1.98.04-1.21-1.12-1.48-13.47-3.15-27.25-5.33-40.77-8.27-.18-2.08,1.01-11.39,2.68-11.9l69.77,14.67,4.25,1.74c9.81,12.17,26.89,23.79,35.94,35.92,2.56,3.43,2.91,7.84-1.35,9.91-3.49,1.7-26.42,5.69-26.78,7.03l-.29,91.65c-.85,2.27-2.81,3.33-5.07,3.92l-120,35.76-124.26-37.44-1.51-2.23-.29-91.65c-.37-1.36-23.84-5.27-27.28-7.28-2.72-1.6-3.44-5.17-2.14-7.95l39.09-38.76,72.2-15.24c1.38.35,3.29,11,2.6,11.82ZM169.21,219.39l-100.67-20.96-1.54.7-25.04,25.49,105.1,26.09,22.15-31.32ZM317.42,224.62c-8.57-8.93-17.2-18.32-26.58-26.19l-100.67,20.96,22.15,31.32,105.1-26.09ZM173.7,357.12v-122.01c-.82.09-1.32.97-1.81,1.56-5.6,6.74-11.96,19.54-17.65,25.01-1.26,1.21-2.33,1.84-4.13,1.91l-84.2-21v82.34l107.79,32.19ZM293.47,242.59l-84.2,21c-1.8-.08-2.87-.71-4.13-1.91-5.69-5.48-12.05-18.27-17.65-25.01-.49-.59-.99-1.47-1.81-1.56v122.01l107.79-32.19v-82.34Z"/>
      <path d="M174.3.29c48.99-4.98,76.3,55.97,38.68,88.09-5.25,4.48-11.48,6.99-17.47,10.23l-.14,40.28c-.41,2.6-2.29,4.46-4.87,4.87-3.72.58-17.9.58-21.62,0s-4.65-3-4.95-6.28c-1.56-17.11,1.24-36.57.03-53.94.72-4.37,2.22-7.92,5.75-10.72,7.53-5.98,17.01-1.28,24.53-9.9,20.56-23.56-23.14-48.26-32.87-19.4-1.39,4.14-.16,10.9-4.85,12.37-2.47.78-19.79.77-22.83.29-8.34-1.3-4.02-16.2-2.26-21.63C137.41,16.09,155.06,2.24,174.3.29ZM183.43,131.81v-40.05c0-3.69,10.82-5.8,13.76-7.2,19.99-9.52,27.1-34.83,15.84-53.83C194.78-.03,146.89,9.23,141.51,44.23l7.39-.09c4.72-22.33,32.19-32.65,50.26-18.25,20.67,16.46,13.03,49.03-12.69,54.69-1.76.39-10.52.32-10.52,2.95v48.28h7.49Z"/>
      <path d="M23.03,61.6c7.82-2.35,8.48,6.43,11.87,11.02,1.48,2,4.75,5.07,6.69,6.79,2.53,2.24,6.7,2.68,6.34,7.82-.32,4.68-8.96,6.73-12.71,9.76-3,2.42-7.88,10.06-9.3,10.91-7.88,4.73-10.61-7.65-14.67-12.38C8.17,91.95,0,87.88,0,83.53c0-5.4,8.37-6.97,12.37-10.12,2.96-2.33,8.91-11.28,10.65-11.8ZM30.73,86.14l-6.36-7.46-7.11,5.24,5.25,7.47,8.22-5.25Z"/>
      <path d="M313.14,80.37c1.45-1.44,9.3-3,12.28-4.57,2.08-1.1,4.71-3.14,6.6-4.63,1.65-1.3,1.83-2.95,4.07-4.16,9.23-4.99,9.58,8.74,13.22,14.58,2.97,4.78,10.19,8.42,8.39,14.5-.97,3.28-11.77,5.59-15.79,8.16-4.85,3.09-8.15,9.73-14.21,7.93-2.7-.8-5.37-11.86-7.7-15.5-2.96-4.63-12.63-10.58-6.84-16.32ZM336.87,83.16l-8.18,4.85,4.82,7.86c2.03-2.27,4.92-3.71,7.86-4.49l-4.5-8.22Z"/>
      <path d="M122.04,160.24l-11.25,2.7c-9.35-27.5-32.61-48.33-61.3-53.63l1.45-11.93c32.96,5.66,61.84,30.66,71.1,62.86Z"/>
      <path d="M311.35,107.77c-26.45,4.4-48.11,20.01-60.91,43.4l-10.05-5.5c13.33-26.98,39.91-45.2,69.53-49.79l1.42,11.89Z"/>
      <path d="M176.5,149.96c24.4-3.87,28.78,32.78,5.75,35.68-23.65,2.98-27.88-32.17-5.75-35.68ZM177.99,161.9c-6.89,1.5-5.37,13.6,3.4,11.68,6.89-1.5,5.37-13.6-3.4-11.68Z"/>
    </g>
  </g>
</svg>