<?xml version="1.0" encoding="UTF-8"?>
<svg id="Capa_2" data-name="Capa 2" xmlns="http://www.w3.org/2000/svg" viewBox="0 0 243.81 288.95">
  <g id="Capa_1-2" data-name="Capa 1">
    <g>
      <path d="M2.87,288.95c-2.15-1.53-2.93-2.62-2.87-5.36,6.83-28.21-2.76-70.98,30.36-84.21,17.41-6.95,39.04-10.14,57.13-16.21.63-.21,2.71-.63,2.85-1.22l-.14-20.67c-9.77-9.66-20.49-20.32-21.89-34.81-10.7-.6-27.32,3.57-31.43-10.03-1.29-4.26-1.27-21.32.14-25.5,1.26-3.71,4.08-5.86,6.94-8.29-1.53-28.81,6.09-58.03,32.8-72.7,22.85-12.55,60.84-12.98,84.62-2.79,30.66,13.14,40.26,44.12,38.47,75.49,2.86,2.43,5.69,4.58,6.94,8.29,1.41,4.18,1.43,21.23.14,25.5-4.11,13.6-20.74,9.43-31.43,10.03-1.49,14.36-11.93,25.38-21.89,34.81l-.14,20.67c.14.57,2.19,1.01,2.85,1.22,18.12,5.81,39.8,9.29,57.13,16.21,16.13,6.45,22.22,18.86,24.6,35.2,2.37,16.25,3.17,32.78,5.76,49.01.06,2.74-.72,3.83-2.87,5.36h-3.38l-2.69-3.23-7.18-58.27c-5.74-22.64-30.86-22.33-49.03-28.68l-26.04,38.8c-1.18,1.61-3.04,2.03-4.92,1.62l-21.28-17.38v32.44c0,1.07-3.08,3.04-4.28,3.1-1.41.07-4.75-1.86-4.75-3.1v-32.44l-21.28,17.38c-1.88.42-3.73,0-4.92-1.62l-26.04-38.82c-13.05,5.03-32.91,5.72-42.52,16.59-5.3,5.99-6.71,12.11-7.84,19.8-2.48,16.75-3.35,33.81-5.84,50.57l-2.69,3.23h-3.38ZM190.74,81.34c1.53-24.84-4.81-50.43-27.83-63.29-21.49-12-60.54-11.98-82,0-23.01,12.85-29.36,38.42-27.83,63.29h4.52c.3-22.98,6.76-48.25,28.19-60.1,17.75-9.81,47.25-10.03,65.65-1.88,24.26,10.74,32.05,37.23,31.95,61.98h7.34ZM173.8,72.31c-.78-16.9-8.23-35.36-23.87-43.54-14.9-7.8-39.48-8.04-54.93-1.69-21.78,8.95-28.1,32.58-28.39,54.26h1.69c2.4-18.56,14.31-26.05,32.4-21.4,6.94,1.78,13.52,6.6,20.98,6.67,7.96.08,15.21-5.32,22.78-7,10.66-2.37,20.61-1.17,26.98,8.57.83,1.27,1.17,3.3,2.35,4.13ZM166.97,119.08c-1.39-12.27,4.07-39.43-5.3-48.45-8.25-7.94-20.54.62-29.05,3.1-16.34,4.77-20.19-1.29-33.99-4.95-10.07-2.67-17.52-1.5-20.71,9.49-2.27,7.83-1.89,36.02-1.18,45.12,1.3,16.61,19.07,32.62,33.1,39.67,11.11,5.59,15.22,4.93,25.97-.95,12.04-6.58,25.56-18.92,29.81-32.25.23-.71.6-.75-.57-.57-4.89.76-10.91,4.82-16.01,5.71.06,11.3-12.35,18.28-21.79,11.22-12.01-8.98-1.73-28.6,13.09-23.25,2.1.76,4.63,3.55,6.02,3.5l20.59-7.39ZM67.75,90.37h-18.34c-1.87,0-3.77,2.56-4.1,4.36-.5,2.81-.53,16.22.13,18.78.36,1.4,2.66,3.93,3.96,3.93h18.34v-27.08ZM176.07,117.45h18.34c1.49,0,3.79-2.8,4.1-4.36.52-2.56.49-16.39-.14-18.78-.36-1.4-2.66-3.93-3.96-3.93h-18.34v27.08ZM134.16,131.1c-5.19,1.13-4.05,10.25,2.56,8.8,5.19-1.13,4.05-10.25-2.56-8.8ZM144.47,167.66c-10.1,6.06-21.19,11.15-32.87,6.07l-12.27-6.07v15.51l22.77,22.24,22.36-22.24v-15.51ZM95.4,228.02l19.72-16.08-21.26-21.07-19.35,4.99,20.88,32.15ZM169.3,195.87l-19.35-4.99-21.26,21.07,19.73,16.08,20.88-32.15Z"/>
      <path d="M123.6,288.95h-3.38c-1.36-1.13-2.48-1.79-2.79-3.7-.44-2.81-.39-11.71-.05-14.65.67-5.74,8.39-5.74,9.05,0,.34,2.94.4,11.83-.05,14.65-.3,1.91-1.43,2.57-2.79,3.7Z"/>
    </g>
  </g>
</svg>