<?xml version="1.0" encoding="UTF-8"?>
<svg id="Capa_2" data-name="Capa 2" xmlns="http://www.w3.org/2000/svg" viewBox="0 0 53.82 62.97">
  <defs>
    <style>
      .cls-1 {
        fill: #fff;
      }
    </style>
  </defs>
  <g id="_1" data-name="1">
    <g>
      <path class="cls-1" d="M17.25,0c.5,0,.91.41.91.91s-.41.91-.91.91-.91-.41-.91-.91.41-.91.91-.91Z"/>
      <path class="cls-1" d="M11.53,8.51c1.92,0,3.43-1.51,3.43-3.43s-1.51-3.43-3.43-3.43-3.43,1.51-3.43,3.43c0,1.82,1.51,3.43,3.43,3.43ZM11.53,2.76c1.21,0,2.22,1.01,2.22,2.22s-1.01,2.22-2.22,2.22-2.22-1.01-2.22-2.22,1.01-2.22,2.22-2.22Z"/>
      <path class="cls-1" d="M53.82,13.89c-.93,2.31-2.5,4.32-3.57,6.58l-.06,31.9-.47.38-45.17.05C2.16,52.61.33,50.91,0,48.52V15.75c.21-1.67,1.26-3.23,2.83-3.9,1.18-.51,4.59-.5,5.94-.37.26.02.78.15.78.48v4.31l.16.16h8.88l1.14-2.28c-1.24-2.62-.19-5.89,2.53-6.99-.13-1.56-.02-3.93,2.07-3.98s2.31,2.41,2.17,3.98c2.34.96,3.47,3.59,2.88,6.01-.07.29-.37.74-.34.98.01.14,1.07,2.25,1.2,2.28h15s3.02-5.1,3.02-5.1c1.85-2.03,4.88-1.17,5.57,1.42v1.16ZM25.01,6.64v-1.52c0-.58-1.26-.58-1.26,0v1.52h1.26ZM23.94,8.14c-2.83.31-4.27,3.73-2.45,5.96,2.62,3.22,7.7.43,6.37-3.53-.56-1.65-2.2-2.62-3.92-2.44ZM51.89,12.14c-.73-.76-2.07-.58-2.64.29l-10.47,18.24.1.21,2.68,1.51,10.69-18.52c.23-.57.03-1.3-.38-1.72ZM8.08,12.95h-3.94c-1.04,0-2.68,1.76-2.68,2.79v28.76c.38-.26.74-.59,1.15-.79.2-.1,1.17-.47,1.32-.47h4.15V12.95ZM18.18,20.41h1.47l2.1-4.15-1-.79-2.58,4.94ZM30.58,20.41l-2.58-4.94-1,.79,2.01,3.99c.27.34,1.14.1,1.57.17ZM27.43,20.41l-1.79-3.53c-.85.05-1.72.15-2.56-.05l-1.75,3.58h6.1ZM17.76,17.89h-8.2v26.34c0,.13-.51.44-.69.47-1.8.29-4.38-.53-5.97.55-1.98,1.34-1.88,4.36.17,5.58.21.12,1.1.5,1.28.5h44.42v-28.28l-6.31,10.78-4.76,3.23c-1.29.5-1.05-1.29-1.03-2.08.04-1.41.22-2.88.35-4.27l7.33-12.81h-13.35l1.17,2.51c.67.14,2.67-.22,3.11.25.3.32.12,1.23-.34,1.23h-1.95l1.68,3.42c-.21,2.55.3,5.6,0,8.09-.06.49-.34.77-.87.66-.94-.19-.46-1.84-.65-2.51l-4.91-9.65-7.51-.02-.35.17-4.77,9.43c-.25.64.21,2.2-.53,2.52-.4.18-.89.05-1.02-.4v-8.2s1.68-3.52,1.68-3.52h-1.95c-.52,0-.85-1.35.21-1.47.45-.05,2.38.1,2.56-.02l1.17-2.51ZM15.55,25.51v2.79l3.26-6.36c0-.07-1.28-.13-1.42.05l-1.84,3.52ZM33.21,28.3v-2.68l-1.84-3.63c-.14-.18-1.42-.12-1.42-.05l3.26,6.36ZM38.26,32.98c-.05.51,0,1.15,0,1.68,0,.02-.26.39.05.26.21-.09,1.65-1.08,1.88-1.28.08-.07.21-.1.18-.24l-1.84-1.1c-.23-.03-.13.03-.15.16-.03.15-.1.43-.11.52Z"/>
      <path class="cls-1" d="M20.99,35.27c1.66-.17,3.04.25,4.49,1.01,3.54-2.16,8.18-.85,9.85,2.99,2.68,6.16-4.22,11.91-9.85,8.38-5.43,3.33-12.05-1.62-10.12-7.81.75-2.4,3.12-4.32,5.63-4.57ZM24.17,46.69c.1-.14-.62-.96-.75-1.19-1.42-2.45-1.33-5.26.35-7.57.15-.2.33-.37.51-.54-2.76-1.67-6.44-.16-7.47,2.83-1.56,4.54,3.09,8.51,7.36,6.47ZM26.69,46.7c4.19,1.94,8.73-1.58,7.54-6.12-.83-3.17-4.68-4.96-7.54-3.18,2.05,2.07,2.36,5.47.92,7.97l-.93,1.33ZM25.39,38.29c-2.02,2.06-1.97,5.46.09,7.46,2.01-1.95,2.16-5.67-.09-7.46Z"/>
      <path class="cls-1" d="M23.83,9.29c3.79-.65,4.18,5.01.59,5.12-3.09.1-3.49-4.62-.59-5.12ZM24.03,10.76c-1.1.25-.89,2.15.29,2.17,1.54.03,1.52-2.58-.29-2.17Z"/>
      <path class="cls-1" d="M29.37,56.8c.5,0,.91.41.91.91s-.41.91-.91.91-.91-.41-.91-.91.41-.91.91-.91Z"/>
      <path class="cls-1" d="M41.5,59.06c0-1.41-1.11-2.52-2.52-2.52s-2.52,1.11-2.52,2.52,1.11,2.52,2.52,2.52,2.52-1.11,2.52-2.52ZM38.98,60.37c-.71,0-1.31-.61-1.31-1.31s.61-1.31,1.31-1.31,1.31.61,1.31,1.31-.61,1.31-1.31,1.31Z"/>
      <path class="cls-1" d="M33.98,61.15c.5,0,.91.41.91.91s-.41.91-.91.91-.91-.41-.91-.91.41-.91.91-.91Z"/>
    </g>
  </g>
</svg>