<?xml version="1.0" encoding="UTF-8"?>
<svg id="Capa_2" data-name="Capa 2" xmlns="http://www.w3.org/2000/svg" viewBox="0 0 46.17 49.5">
  <defs>
    <style>
      .cls-1 {
        fill: #fff;
      }
    </style>
  </defs>
  <g id="_1" data-name="1">
    <g>
      <path class="cls-1" d="M5.05,29.28c0-1.41-1.11-2.52-2.52-2.52s-2.52,1.11-2.52,2.52,1.11,2.52,2.52,2.52,2.52-1.11,2.52-2.52ZM2.52,30.59c-.71,0-1.31-.61-1.31-1.31s.61-1.31,1.31-1.31,1.31.61,1.31,1.31-.61,1.31-1.31,1.31Z"/>
      <path class="cls-1" d="M4.88,23.19c.5,0,.91.41.91.91s-.41.91-.91.91-.91-.41-.91-.91.41-.91.91-.91Z"/>
      <g id="Capa_1-2" data-name="Capa 1-2">
        <g>
          <path class="cls-1" d="M1.98,49.5c-.37-.26-.5-.45-.49-.92,1.17-4.83-.47-12.16,5.2-14.43,2.98-1.19,6.69-1.74,9.79-2.78.11-.04.46-.11.49-.21l-.02-3.54c-1.67-1.65-3.51-3.48-3.75-5.96-1.83-.1-4.68.61-5.38-1.72-.22-.73-.22-3.65.02-4.37.22-.64.7-1,1.19-1.42-.26-4.94,1.04-9.94,5.62-12.45,3.91-2.15,10.42-2.22,14.5-.48,5.25,2.25,6.9,7.56,6.59,12.93.49.42.97.78,1.19,1.42.24.72.24,3.64.02,4.37-.7,2.33-3.55,1.62-5.38,1.72-.26,2.46-2.04,4.35-3.75,5.96l-.02,3.54c.02.1.38.17.49.21,3.1,1,6.82,1.59,9.79,2.78,2.76,1.1,3.81,3.23,4.21,6.03.41,2.78.54,5.62.99,8.4.01.47-.12.66-.49.92h-.58l-.46-.55-1.23-9.98c-.98-3.88-5.29-3.83-8.4-4.91l-4.46,6.65c-.2.28-.52.35-.84.28l-3.65-2.98v5.56c0,.18-.53.52-.73.53-.24.01-.81-.32-.81-.53v-5.56l-3.65,2.98c-.32.07-.64,0-.84-.28l-4.46-6.65c-2.24.86-5.64.98-7.28,2.84-.91,1.03-1.15,2.07-1.34,3.39-.42,2.87-.57,5.79-1,8.66l-.46.55h-.58ZM34.16,13.94c.26-4.26-.82-8.64-4.77-10.84-3.68-2.06-10.37-2.05-14.05,0-3.94,2.2-5.03,6.58-4.77,10.84h.77c.05-3.94,1.16-8.27,4.83-10.3,3.04-1.68,8.09-1.72,11.25-.32,4.16,1.84,5.49,6.38,5.47,10.62h1.26ZM31.26,12.39c-.13-2.9-1.41-6.06-4.09-7.46-2.55-1.34-6.76-1.38-9.41-.29-3.73,1.53-4.81,5.58-4.86,9.3h.29c.41-3.18,2.45-4.46,5.55-3.67,1.19.3,2.32,1.13,3.59,1.14,1.36.01,2.61-.91,3.9-1.2,1.83-.41,3.53-.2,4.62,1.47.14.22.2.57.4.71h0ZM30.09,20.4c-.24-2.1.7-6.75-.91-8.3-1.41-1.36-3.52.11-4.98.53-2.8.82-3.46-.22-5.82-.85-1.73-.46-3-.26-3.55,1.63-.39,1.34-.32,6.17-.2,7.73.22,2.85,3.27,5.59,5.67,6.8,1.9.96,2.61.84,4.45-.16,2.06-1.13,4.38-3.24,5.11-5.52.04-.12.1-.13-.1-.1-.84.13-1.87.83-2.74.98.01,1.94-2.12,3.13-3.73,1.92-2.06-1.54-.3-4.9,2.24-3.98.36.13.79.61,1.03.6l3.53-1.27h0ZM13.09,15.48h-3.14c-.32,0-.65.44-.7.75-.09.48-.09,2.78.02,3.22.06.24.46.67.68.67h3.14v-4.64h0ZM31.65,20.12h3.14c.26,0,.65-.48.7-.75.09-.44.08-2.81-.02-3.22-.06-.24-.46-.67-.68-.67h-3.14v4.64h0ZM24.47,22.46c-.89.19-.69,1.76.44,1.51.89-.19.69-1.76-.44-1.51ZM26.23,28.72c-1.73,1.04-3.63,1.91-5.63,1.04l-2.1-1.04v2.66l3.9,3.81,3.83-3.81v-2.66h0ZM17.83,39.06l3.38-2.75-3.64-3.61-3.31.85,3.58,5.51h0ZM30.49,33.56l-3.31-.85-3.64,3.61,3.38,2.75,3.58-5.51h0Z"/>
          <path class="cls-1" d="M22.66,49.5h-.58c-.23-.19-.42-.31-.48-.63-.08-.48-.07-2.01,0-2.51.11-.98,1.44-.98,1.55,0,.06.5.07,2.03,0,2.51-.05.33-.24.44-.48.63h0Z"/>
        </g>
      </g>
      <path class="cls-1" d="M40.24,29.95c.5,0,.91.41.91.91s-.41.91-.91.91-.91-.41-.91-.91.41-.91.91-.91Z"/>
      <path class="cls-1" d="M44.03,26.37c.94,0,1.7.76,1.7,1.7s-.76,1.7-1.7,1.7-1.7-.76-1.7-1.7.76-1.7,1.7-1.7Z"/>
      <path class="cls-1" d="M45.26,32.68c.5,0,.91.41.91.91s-.41.91-.91.91-.91-.41-.91-.91.41-.91.91-.91Z"/>
    </g>
  </g>
</svg>