<?xml version="1.0" encoding="UTF-8"?>
<svg id="Capa_2" data-name="Capa 2" xmlns="http://www.w3.org/2000/svg" viewBox="0 0 52.99 56.62">
  <defs>
    <style>
      .cls-1 {
        stroke-width: .5px;
      }

      .cls-1, .cls-2, .cls-3 {
        fill: #fff;
      }

      .cls-1, .cls-3 {
        stroke: #fff;
        stroke-miterlimit: 10;
      }

      .cls-3 {
        stroke-width: .25px;
      }
    </style>
  </defs>
  <g id="_1" data-name="1">
    <path class="cls-2" d="M9.79,3.73c.5,0,.91.41.91.91s-.41.91-.91.91-.91-.41-.91-.91.41-.91.91-.91Z"/>
    <path class="cls-2" d="M2.22,16.35c.5,0,.91.41.91.91s-.41.91-.91.91-.91-.41-.91-.91.41-.91.91-.91Z"/>
    <circle class="cls-2" cx="52.08" cy="19.78" r=".91"/>
    <path class="cls-2" d="M39.47,3.73c.5,0,.91.41.91.91s-.41.91-.91.91-.91-.41-.91-.91.41-.91.91-.91Z"/>
    <circle class="cls-2" cx="26.85" cy="45.02" r=".91"/>
    <path class="cls-2" d="M4.14,37.75c.5,0,.91.41.91.91s-.41.91-.91.91-.91-.41-.91-.91.41-.91.91-.91Z"/>
    <path class="cls-1" d="M50.47,6.56c-2.22-2.22-5.85-2.22-8.08,0-1.51,1.51-36.44,36.44-37.95,37.95-.1.1-.1.2-.2.3l-1.82,8.88c-.1.4.3.81.71.71l8.88-1.82c.1,0,.2-.1.3-.2L50.27,14.43c2.42-2.02,2.42-5.65.2-7.87ZM20.19,43.2l-6.26-6.26,21.9-21.9,6.26,6.26-21.9,21.9ZM16.55,46.73l-6.26-6.26c.61-.61,2.42-2.42,2.73-2.73l6.26,6.26-2.73,2.72ZM42.9,20.39l-6.26-6.26c.2-.2,2.32-2.32,2.73-2.73l6.26,6.26-2.73,2.73ZM11.81,51.48l-7.77,1.51,1.51-7.77,3.84-3.84,6.26,6.26-3.84,3.84ZM46.43,16.86l-6.26-6.26,3.13-3.13c1.72-1.72,4.54-1.72,6.26,0,1.72,1.72,1.72,4.54,0,6.26l-3.13,3.13Z"/>
    <path class="cls-2" d="M52.39,29.57c-.3,0-.61.3-.61.61v5.65h-5.05v-5.05h1.92c.3,0,.61-.3.61-.61s-.3-.61-.61-.61h-8.88c-.3,0-.61.3-.61.61v5.65h-5.65c-.3,0-.61.3-.61.61v12.01h-4.34c-.3,0-.61.3-.61.61s.3.61.61.61h4.34v5.05c0,.3.3.61.61.61h6.36c.3,0,.61-.3.61-.61v-5.05h5.05v5.05c0,.3.3.61.61.61s.61-.3.61-.61v-5.05h5.65c.3,0,.61-.3.61-.61v-6.36c0-.3-.3-.61-.61-.61h-5.65v-5.05h5.65c.3,0,.61-.3.61-.61v-6.36c0-.3-.2-.5-.61-.5ZM45.42,42.19h-5.05v-5.05h5.05v5.05ZM34.12,48.45v-5.05h5.05v5.05h-5.05ZM40.37,30.79h5.05v5.05h-5.05v-5.05ZM34.12,37.14h5.05v5.05h-5.05v-5.05ZM39.16,54.1h-5.05v-4.44h5.05v4.44ZM40.37,48.45v-5.05h5.05v5.05h-5.05ZM51.78,48.45h-5.05v-5.05h5.05v5.05Z"/>
    <path class="cls-3" d="M9.89,19.69h6.96l-6.36,13.12c-.2.4.1.91.61.91.2,0,.3-.1.4-.2l22.41-22.21c.4-.4.1-1.11-.4-1.11h-9.99l2.93-6.06c.2-.4-.1-.91-.61-.91h-9.08c-.2,0-.5.1-.61.4l-6.76,15.14c-.2.4.1.91.5.91ZM17.16,4.55h7.67l-2.93,6.06c-.2.4.1.91.61.91h9.39L13.22,29.99l5.15-10.7c.2-.4-.1-.91-.61-.91h-6.96l6.36-13.83Z"/>
    <path class="cls-2" d="M5.05,30.79c0-1.41-1.11-2.52-2.52-2.52s-2.52,1.11-2.52,2.52,1.11,2.52,2.52,2.52,2.52-1.11,2.52-2.52ZM2.52,32.1c-.71,0-1.31-.61-1.31-1.31s.61-1.31,1.31-1.31,1.31.61,1.31,1.31-.61,1.31-1.31,1.31Z"/>
    <path class="cls-2" d="M22.41,50.97c-1.62,0-2.83,1.31-2.83,2.83,0,1.62,1.31,2.83,2.83,2.83s2.83-1.31,2.83-2.83-1.21-2.83-2.83-2.83ZM22.41,55.41c-.91,0-1.62-.71-1.62-1.62s.71-1.61,1.62-1.61,1.61.71,1.61,1.61-.71,1.62-1.61,1.62Z"/>
    <path class="cls-2" d="M32.5,6.86c1.92,0,3.43-1.51,3.43-3.43s-1.51-3.43-3.43-3.43-3.43,1.51-3.43,3.43c0,1.82,1.51,3.43,3.43,3.43ZM32.5,1.11c1.21,0,2.22,1.01,2.22,2.22s-1.01,2.22-2.22,2.22-2.22-1.01-2.22-2.22,1.01-2.22,2.22-2.22Z"/>
  </g>
</svg>