<?xml version="1.0" encoding="UTF-8"?>
<svg id="Capa_2" data-name="Capa 2" xmlns="http://www.w3.org/2000/svg" viewBox="0 0 53.41 54.4">
  <defs>
    <style>
      .cls-1 {
        fill: #fff;
      }
    </style>
  </defs>
  <g id="_1" data-name="1">
    <g>
      <path class="cls-1" d="M45.51,26.68c.5,0,.91.41.91.91s-.41.91-.91.91-.91-.41-.91-.91.41-.91.91-.91Z"/>
      <path class="cls-1" d="M53.41,27.71c0-1.41-1.11-2.52-2.52-2.52s-2.52,1.11-2.52,2.52,1.11,2.52,2.52,2.52,2.52-1.11,2.52-2.52ZM50.89,29.03c-.71,0-1.31-.61-1.31-1.31s.61-1.31,1.31-1.31,1.31.61,1.31,1.31-.61,1.31-1.31,1.31Z"/>
      <path class="cls-1" d="M19.47,27.86l-5.88,1.17.1.16,11.54,2.46,11.73-2.41c.03-.28,0-.17-.16-.21-1.89-.44-3.83-.75-5.73-1.16-.03-.29.14-1.6.38-1.67l9.81,2.06.6.24c1.38,1.71,3.78,3.35,5.05,5.05.36.48.41,1.1-.19,1.39-.49.24-3.71.8-3.77.99l-.04,12.89c-.12.32-.39.47-.71.55l-16.88,5.03-17.47-5.27-.21-.31-.04-12.89c-.05-.19-3.35-.74-3.84-1.02-.38-.22-.48-.73-.3-1.12l5.5-5.45,10.15-2.14c.19.05.46,1.55.37,1.66ZM23.79,33.03l-14.16-2.95-.22.1-3.52,3.58,14.78,3.67,3.11-4.4ZM44.64,33.77c-1.2-1.26-2.42-2.58-3.74-3.68l-14.16,2.95,3.11,4.4,14.78-3.67ZM24.43,52.4v-17.16c-.11.01-.19.14-.25.22-.79.95-1.68,2.75-2.48,3.52-.18.17-.33.26-.58.27l-11.84-2.95v11.58l15.16,4.53ZM41.27,36.29l-11.84,2.95c-.25-.01-.4-.1-.58-.27-.8-.77-1.69-2.57-2.48-3.52-.07-.08-.14-.21-.25-.22v17.16l15.16-4.53v-11.58Z"/>
      <path class="cls-1" d="M24.51,2.22c6.89-.7,10.73,7.87,5.44,12.39-.74.63-1.61.98-2.46,1.44l-.02,5.66c-.06.37-.32.63-.68.68-.52.08-2.52.08-3.04,0s-.65-.42-.7-.88c-.22-2.41.17-5.14,0-7.58.1-.62.31-1.11.81-1.51,1.06-.84,2.39-.18,3.45-1.39,2.89-3.31-3.25-6.79-4.62-2.73-.2.58-.02,1.53-.68,1.74-.35.11-2.78.11-3.21.04-1.17-.18-.56-2.28-.32-3.04.84-2.59,3.32-4.54,6.03-4.82ZM25.8,20.71v-5.63c0-.52,1.52-.82,1.93-1.01,2.81-1.34,3.81-4.9,2.23-7.57-2.57-4.33-9.3-3.02-10.06,1.9h1.04c.66-3.15,4.53-4.6,7.07-2.58,2.91,2.32,1.83,6.9-1.78,7.69-.25.05-1.48.04-1.48.42v6.79h1.05Z"/>
      <path class="cls-1" d="M3.24,10.84c1.1-.33,1.19.9,1.67,1.55.21.28.67.71.94.95.36.31.94.38.89,1.1-.05.66-1.26.95-1.79,1.37-.42.34-1.11,1.42-1.31,1.53-1.11.67-1.49-1.08-2.06-1.74C1.15,15.11,0,14.54,0,13.92c0-.76,1.18-.98,1.74-1.42.42-.33,1.25-1.59,1.5-1.66ZM4.32,14.29l-.89-1.05-1,.74.74,1.05,1.16-.74Z"/>
      <path class="cls-1" d="M44.04,13.48c.2-.2,1.31-.42,1.73-.64.29-.15.66-.44.93-.65.23-.18.26-.41.57-.59,1.3-.7,1.35,1.23,1.86,2.05.42.67,1.43,1.18,1.18,2.04-.14.46-1.65.79-2.22,1.15-.68.43-1.15,1.37-2,1.11-.38-.11-.76-1.67-1.08-2.18-.42-.65-1.78-1.49-.96-2.29ZM47.37,13.87l-1.15.68.68,1.1c.29-.32.69-.52,1.1-.63l-.63-1.16Z"/>
      <path class="cls-1" d="M17.16,24.71l-1.58.38c-1.31-3.87-4.59-6.8-8.62-7.54l.2-1.68c4.63.8,8.7,4.31,10,8.84Z"/>
      <path class="cls-1" d="M43.78,17.33c-3.72.62-6.77,2.81-8.56,6.1l-1.41-.77c1.87-3.79,5.61-6.36,9.78-7l.2,1.67Z"/>
      <path class="cls-1" d="M24.82,23.27c3.43-.54,4.05,4.61.81,5.02s-3.92-4.52-.81-5.02ZM25.03,24.95c-.97.21-.76,1.91.48,1.64.97-.21.76-1.91-.48-1.64Z"/>
      <path class="cls-1" d="M12,11.44c.5,0,.91.41.91.91s-.41.91-.91.91-.91-.41-.91-.91.41-.91.91-.91Z"/>
      <path class="cls-1" d="M13.59,4.24c.83,0,1.5.67,1.5,1.5s-.67,1.5-1.5,1.5-1.5-.67-1.5-1.5.67-1.5,1.5-1.5Z"/>
      <path class="cls-1" d="M48.96,21.02c.83,0,1.5.67,1.5,1.5s-.67,1.5-1.5,1.5-1.5-.67-1.5-1.5.67-1.5,1.5-1.5Z"/>
      <path class="cls-1" d="M11.48,2.52c0-1.41-1.11-2.52-2.52-2.52s-2.52,1.11-2.52,2.52,1.11,2.52,2.52,2.52,2.52-1.11,2.52-2.52ZM8.96,3.84c-.71,0-1.31-.61-1.31-1.31s.61-1.31,1.31-1.31,1.31.61,1.31,1.31-.61,1.31-1.31,1.31Z"/>
    </g>
  </g>
</svg>