<?xml version="1.0" encoding="UTF-8"?>
<svg id="Capa_2" data-name="Capa 2" xmlns="http://www.w3.org/2000/svg" viewBox="0 0 53.33 70">
  <defs>
    <style>
      .cls-1 {
        fill: none;
        stroke: #fff;
        stroke-miterlimit: 10;
        stroke-width: 1.33px;
      }
    </style>
  </defs>
  <g id="_1" data-name="1">
    <g id="Capa_1-2" data-name="Capa 1-2">
      <g>
        <path class="cls-1" d="M3.33,66.67h4v2c0,.37-.3.67-.67.67h-2.67c-.37,0-.67-.3-.67-.67v-2h0Z"/>
        <path class="cls-1" d="M46,66.67h4v2c0,.37-.3.67-.67.67h-2.67c-.37,0-.67-.3-.67-.67v-2h0Z"/>
        <rect class="cls-1" x=".67" y=".67" width="52" height="66" rx="1.32" ry="1.32"/>
        <line class="cls-1" x1=".67" y1="14" x2="52.67" y2="13.98"/>
        <line class="cls-1" x1="18.67" y1="14" x2="18.67" y2="66.67"/>
        <line class="cls-1" x1="18" y1="63.33" x2="52.67" y2="63.33"/>
        <line class="cls-1" x1="34.67" y1="63.33" x2="34.67" y2="14"/>
        <line class="cls-1" x1="34.67" y1="46.67" x2="52.67" y2="46.65"/>
        <line class="cls-1" x1="18.67" y1="30" x2="34.67" y2="30"/>
        <line class="cls-1" x1="20.67" y1="27.33" x2="32.67" y2="27.33"/>
        <line class="cls-1" x1="20.67" y1="24.67" x2="32.67" y2="24.67"/>
        <line class="cls-1" x1="20.67" y1="22" x2="32.67" y2="22"/>
        <line class="cls-1" x1="20.67" y1="19.33" x2="32.67" y2="19.33"/>
        <line class="cls-1" x1="20.67" y1="16.67" x2="32.67" y2="16.67"/>
        <line class="cls-1" x1=".67" y1="36.67" x2="18.67" y2="36.67"/>
        <line class="cls-1" x1="18.67" y1="46.67" x2="34.67" y2="46.67"/>
        <line class="cls-1" x1=".67" y1="46.67" x2="18.67" y2="46.67"/>
        <line class="cls-1" x1="34.67" y1="43.33" x2=".67" y2="43.33"/>
        <polyline class="cls-1" points="31.33 46.67 31.33 53.33 34.67 53.33 34.67 56.67 18.67 56.67 18.67 53.33 22 53.33 22 46.67"/>
        <line class="cls-1" x1="22" y1="50" x2="31.33" y2="50"/>
        <line class="cls-1" x1="3.33" y1="36.67" x2="3.33" y2="43.33"/>
        <line class="cls-1" x1="16" y1="36.67" x2="16" y2="43.33"/>
        <line class="cls-1" x1="3.33" y1="11.33" x2="7.33" y2="11.33"/>
        <line class="cls-1" x1="46" y1="11.33" x2="50" y2="11.33"/>
        <rect class="cls-1" x="21.33" y="32.67" width="10.67" height="6.67"/>
      </g>
    </g>
  </g>
</svg>